<svg width="123" height="22" viewBox="0 0 123 22" fill="none" xmlns="http://www.w3.org/2000/svg">
<path d="M26.76 1.7H20.928L13.896 13.556L6.86398 1.7H1.03198V18.5H5.35198V6.98L12.336 18.5H15.456L22.44 6.98V18.5H26.76V1.7Z" fill="white"/>
<path d="M48.5 20.5C61.4079 20.5 67 17.0958 67 10.9736C67 4.87778 61.4079 1.5 48.5 1.5C35.55 1.5 30 4.85139 30 10.9736C30 17.1222 35.55 20.5 48.5 20.5ZM48.5 17C40.6375 17 36 14.7736 36 10.9736C36 7.2 40.5954 5 48.5 5C56.4045 5 61 7.22639 61 10.9736C61 14.7472 56.3625 17 48.5 17Z" fill="#D22F26"/>
<path d="M88.128 1.7L81.384 15.308L74.64 1.7H69.792L78.432 18.5H84.336L92.976 1.7H88.128Z" fill="white"/>
<path d="M100.329 1.7H96.0085V18.5H100.329V1.7Z" fill="white"/>
<path d="M122.003 5.132V1.7H104.243V18.5H122.003V15.068H108.563V11.66H122.003V8.54H108.563V5.132H122.003Z" fill="white"/>
</svg>
